<svg xmlns="http://www.w3.org/2000/svg" xmlns:xlink="http://www.w3.org/1999/xlink" x="0px" y="0px" enable-background="new 0 0 1000 1000" version="1.1" viewBox="0 0 1000 1000" xml:space="preserve">
    <g>
        <g transform="translate(0.000000,511.000000) scale(0.100000,-0.100000)">
            <path d="M4630.1,4976.2c-796.5-142.9-1452.2-805.5-1592.9-1608.8c-49.9-295-49.9-4039,0-4334c208.8-1198.1,1447.7-1924.2,2614-1531.6c546.8,183.8,1037,664.8,1225.3,1204.9c118,340.4,118,358.5,120.3,2505.1c0,1862.9-4.6,2010.4-43.1,2201c-81.7,392.6-260.9,726.1-546.8,1009.8C5937.1,4892.2,5288.2,5096.4,4630.1,4976.2z M5487.9,4572.3c585.4-186.1,1027.9-701.1,1123.2-1307c18.2-122.5,22.7-730.6,18.2-2178.3l-6.8-2008.1l-61.3-181.5c-90.8-263.2-208.8-451.5-415.2-658c-206.5-206.5-397.1-326.7-658-413c-161.1-52.2-217.8-59-487.9-59s-326.7,6.8-487.9,59c-260.9,86.2-451.5,206.5-658,413c-206.5,206.5-324.5,394.8-415.2,658l-61.3,181.5v2121.6V3322l59,174.7c93,272.3,213.3,462.9,415.2,667.1c249.6,249.6,535.5,401.6,864.5,462.9C4916,4663.1,5283.6,4635.8,5487.9,4572.3z"/>
            <path d="M1966.2-492.3c-56.7-59-59-63.5-45.4-288.2c61.3-1046,633.1-1974.1,1547.5-2507.4c326.7-190.6,805.5-349.5,1173.1-385.7l165.6-15.9l6.8-367.6l4.5-369.9h-487.9c-490.1,0-490.1,0-544.6-56.7c-74.9-72.6-74.9-177,0-249.6l54.5-56.7H5000h1159.5l54.5,56.7c74.9,72.6,74.9,177,0,249.6c-54.5,56.7-54.5,56.7-544.6,56.7h-487.9l4.6,369.9l6.8,367.6l165.6,15.9c369.9,38.6,848.6,195.1,1173.1,385.7c921.3,542.3,1481.7,1452.2,1547.5,2505.1c13.6,226.9,11.3,231.4-45.4,290.4c-74.9,74.9-179.3,79.4-251.9,6.8c-45.4-45.4-54.4-84-65.8-276.8c-43.1-687.5-310.9-1286.6-796.5-1772.2c-397.1-394.8-875.9-651.2-1431.8-760.1c-206.5-40.9-769.2-40.9-975.7,0c-555.9,108.9-1032.4,363.1-1431.8,760.1C2597-2053.5,2327-1449.9,2283.9-762.4c-11.3,192.9-20.4,231.5-65.8,276.8C2145.5-412.9,2041.1-417.4,1966.2-492.3z"/>
        </g>
    </g>
</svg>
