<?xml version="1.0" encoding="UTF-8" standalone="no"?>
<svg
   xmlns:dc="http://purl.org/dc/elements/1.1/"
   xmlns:cc="http://creativecommons.org/ns#"
   xmlns:rdf="http://www.w3.org/1999/02/22-rdf-syntax-ns#"
   xmlns:svg="http://www.w3.org/2000/svg"
   xmlns="http://www.w3.org/2000/svg"
   xmlns:sodipodi="http://sodipodi.sourceforge.net/DTD/sodipodi-0.dtd"
   xmlns:inkscape="http://www.inkscape.org/namespaces/inkscape"
   width="41.91283"
   height="32.127529"
   id="svg2"
   version="1.1"
   inkscape:version="0.91 r13725"
   sodipodi:docname="favicon.svg"
   inkscape:export-filename="/home/shy/Code/speechless/demo/favicon.png"
   inkscape:export-xdpi="90"
   inkscape:export-ydpi="90">
  <metadata
     id="metadata26">
    <rdf:RDF>
      <cc:Work
         rdf:about="">
        <dc:format>image/svg+xml</dc:format>
        <dc:type
           rdf:resource="http://purl.org/dc/dcmitype/StillImage" />
        <dc:title></dc:title>
      </cc:Work>
    </rdf:RDF>
  </metadata>
  <sodipodi:namedview
     pagecolor="#ffffff"
     bordercolor="#666666"
     borderopacity="1"
     objecttolerance="10"
     gridtolerance="10"
     guidetolerance="10"
     inkscape:pageopacity="0"
     inkscape:pageshadow="2"
     inkscape:window-width="1366"
     inkscape:window-height="715"
     id="namedview24"
     showgrid="false"
     inkscape:zoom="9.8333333"
     inkscape:cx="1.780635"
     inkscape:cy="21.376241"
     inkscape:window-x="0"
     inkscape:window-y="0"
     inkscape:window-maximized="1"
     inkscape:current-layer="svg_6"
     fit-margin-top="0"
     fit-margin-left="0"
     fit-margin-right="0"
     fit-margin-bottom="0" />
  <!-- Created with Method Draw - http://github.com/duopixel/Method-Draw/ -->
  <defs
     id="defs4">
    <linearGradient
       id="svg_15"
       x1="0"
       y1="0"
       x2="1"
       y2="0">
      <stop
         stop-color="#ff0000"
         offset="0.335938"
         id="stop7"
         style="stop-color:#ff3232;stop-opacity:1" />
      <stop
         stop-color="#00ffff"
         offset="1"
         id="stop9"
         style="stop-color:#faff1f;stop-opacity:1" />
    </linearGradient>
  </defs>
  <g
     id="g11"
     transform="translate(-3.110723,-8.6480992)">
    <title
       id="title13">background</title>
    <rect
       x="-1"
       y="-1"
       width="50"
       height="50"
       id="canvas_background"
       style="fill:none" />
    <g
       id="canvasGrid"
       display="none"
       style="display:none">
      <rect
         id="svg_1"
         width="48"
         height="48"
         x="0"
         y="0"
         style="fill:url(#gridpattern);stroke-width:0" />
    </g>
  </g>
  <g
     id="g18"
     transform="translate(-3.110723,-8.6480992)">
    <title
       id="title20">Layer 1</title>
    <g
       id="svg_6">
      <g
         id="g4158"
         transform="matrix(1.2846446,0,0,1.2846446,-8.8791869,-5.9663106)">
        <path
           sodipodi:nodetypes="ccccsccsccccccsccsccc"
           inkscape:connector-curvature="0"
           style="fill:#ff3232;fill-opacity:1;stroke:#ff3232;stroke-width:1.35399997;stroke-miterlimit:4;stroke-dasharray:none;stroke-opacity:1"
           inkscape:export-ydpi="90"
           inkscape:export-xdpi="90"
           id="svg_11"
           d="m 28.890423,16.202643 c -0.631076,-0.624649 -1.644322,-0.624649 -2.272189,0.0032 -0.626257,0.627866 -0.626257,1.64433 0.0032,2.273797 l 0,-0.0032 c 1.385799,1.387399 2.240072,3.290261 2.240072,5.405076 0,2.113215 -0.852673,4.009651 -2.236853,5.39705 -0.632685,0.624648 -0.632685,1.641112 -0.0032,2.272179 0.313129,0.313128 0.724216,0.470502 1.135295,0.470502 0.412687,0 0.823765,-0.157374 1.136894,-0.470502 1.962268,-1.959051 3.179458,-4.68086 3.177849,-7.669229 0.0016,-2.994786 -1.220399,-5.719805 -3.181068,-7.678873 z m 7.685276,-3.683668 c -0.631076,-0.627867 -1.644321,-0.627867 -2.26897,0 -0.629476,0.627858 -0.629476,1.645931 0,2.270579 2.328385,2.329995 3.763954,5.535142 3.763954,9.090344 0,3.552002 -1.435569,6.755541 -3.760745,9.087144 -0.629467,0.626258 -0.629467,1.642712 0,2.270579 0.313129,0.313129 0.724207,0.470493 1.136894,0.470493 0.411078,0 0.822165,-0.157364 1.135294,-0.470493 2.903255,-2.904864 4.703341,-6.928968 4.700132,-11.357723 0.0016,-4.431964 -1.798477,-8.459277 -4.706559,-11.360923 z" />
        <text
           sodipodi:linespacing="125%"
           id="text4154"
           y="31.936169"
           x="7.575438"
           style="font-style:normal;font-weight:normal;font-size:25.35653114px;line-height:125%;font-family:sans-serif;letter-spacing:0px;word-spacing:0px;fill:#ff3232;fill-opacity:1;stroke:none;stroke-width:1px;stroke-linecap:butt;stroke-linejoin:miter;stroke-opacity:1"
           xml:space="preserve"><tspan
             style="font-style:normal;font-variant:normal;font-weight:normal;font-stretch:normal;font-size:50px;font-family:Dyuthi;-inkscape-font-specification:Dyuthi"
             y="31.936169"
             x="7.575438"
             id="tspan4156"
             sodipodi:role="line">s</tspan></text>
      </g>
    </g>
  </g>
</svg>
